<?xml version="1.0" encoding="UTF-8" standalone="no"?>
<!DOCTYPE svg PUBLIC "-//W3C//DTD SVG 1.1//EN" "http://www.w3.org/Graphics/SVG/1.1/DTD/svg11.dtd">
<svg width="100%" height="100%" viewBox="0 0 766 211" version="1.1" xmlns="http://www.w3.org/2000/svg" xmlns:xlink="http://www.w3.org/1999/xlink" xml:space="preserve" xmlns:serif="http://www.serif.com/" style="fill-rule:evenodd;clip-rule:evenodd;stroke-linejoin:round;stroke-miterlimit:2;">
    <g transform="matrix(1,0,0,1,-8232,-602)">
        <g transform="matrix(1,0,0,1,7706.4,366.424)">
            <g transform="matrix(1,0,0,0.801504,0,46.9464)">
                <rect x="526.112" y="236.51" width="764.746" height="261" style="fill:white;"/>
                <clipPath id="_clip1">
                    <rect x="526.112" y="236.51" width="764.746" height="261"/>
                </clipPath>
                <g clip-path="url(#_clip1)">
                    <g transform="matrix(0.962636,1.20104,-1.23673,1.54301,-706.192,-4166.46)">
                        <path d="M2968.53,718.178C2968.53,641.563 2888.62,579.362 2790.19,579.362L2664.87,579.362C2566.44,579.362 2486.53,641.563 2486.53,718.178L2486.53,853.547C2486.53,930.161 2566.44,992.362 2664.87,992.362L2790.19,992.362C2888.62,992.362 2968.53,930.161 2968.53,853.547L2968.53,718.178Z" style="fill:rgb(244,249,254);"/>
                    </g>
                    <g transform="matrix(0.628476,-0.784121,0.796937,0.994303,-1048.91,1805.46)">
                        <path d="M2968.53,674.39C2968.53,621.943 2914.54,579.362 2848.03,579.362L2607.03,579.362C2540.53,579.362 2486.53,621.943 2486.53,674.39L2486.53,897.334C2486.53,949.782 2540.53,992.362 2607.03,992.362L2848.03,992.362C2914.54,992.362 2968.53,949.782 2968.53,897.334L2968.53,674.39Z" style="fill:rgb(231,243,255);"/>
                    </g>
                    <g transform="matrix(0.631083,0.787374,-0.800244,0.998428,-604.121,-2681.04)">
                        <path d="M2968.53,674.39C2968.53,621.943 2914.54,579.362 2848.03,579.362L2607.03,579.362C2540.53,579.362 2486.53,621.943 2486.53,674.39L2486.53,897.334C2486.53,949.782 2540.53,992.362 2607.03,992.362L2848.03,992.362C2914.54,992.362 2968.53,949.782 2968.53,897.334L2968.53,674.39Z" style="fill:rgb(236,246,255);"/>
                    </g>
                    <g transform="matrix(0.631083,0.787374,-0.800244,0.998428,-168.276,-2953.03)">
                        <path d="M2968.53,720.004C2968.53,642.382 2888.62,579.362 2790.19,579.362L2664.87,579.362C2566.44,579.362 2486.53,642.382 2486.53,720.004L2486.53,851.721C2486.53,929.343 2566.44,992.362 2664.87,992.362L2790.19,992.362C2888.62,992.362 2968.53,929.343 2968.53,851.721L2968.53,720.004Z" style="fill:rgb(236,246,255);"/>
                    </g>
                </g>
            </g>
        </g>
    </g>
</svg>
