<?xml version="1.0" encoding="UTF-8" standalone="no"?>
<!DOCTYPE svg PUBLIC "-//W3C//DTD SVG 1.1//EN" "http://www.w3.org/Graphics/SVG/1.1/DTD/svg11.dtd">
<svg width="100%" height="100%" viewBox="0 0 1212 580" version="1.1" xmlns="http://www.w3.org/2000/svg" xmlns:xlink="http://www.w3.org/1999/xlink" xml:space="preserve" xmlns:serif="http://www.serif.com/" style="fill-rule:evenodd;clip-rule:evenodd;stroke-linejoin:round;stroke-miterlimit:2;">
    <g transform="matrix(1,0,0,1,-349,-3770)">
        <g transform="matrix(1,0,0,2.03867,-9849.89,3561.38)">
            <g id="BG-CARD" serif:id="BG CARD">
                <g transform="matrix(0.59033,0,0,0.437212,10277.3,-1913.09)">
                    <path d="M1920,4638.82C1920,4623.35 1901.02,4610.78 1877.65,4610.78L-88.499,4610.78C-111.872,4610.78 -130.848,4623.35 -130.848,4638.82L-130.848,5232.14C-130.848,5247.62 -111.872,5260.19 -88.499,5260.19L1877.65,5260.19C1901.02,5260.19 1920,5247.62 1920,5232.14L1920,4638.82Z" style="fill:rgb(38,103,255);"/>
                </g>
                <g transform="matrix(0.59033,0,0,0.437212,10276.8,-1913.09)">
                    <path d="M1920,4638.82C1920,4623.35 1901.02,4610.78 1877.65,4610.78L-88.499,4610.78C-111.872,4610.78 -130.848,4623.35 -130.848,4638.82L-130.848,5232.14C-130.848,5247.62 -111.872,5260.19 -88.499,5260.19L1877.65,5260.19C1901.02,5260.19 1920,5247.62 1920,5232.14L1920,4638.82Z" style="fill:url(#_Radial1);"/>
                </g>
            </g>
        </g>
    </g>
    <defs>
        <radialGradient id="_Radial1" cx="0" cy="0" r="1" gradientUnits="userSpaceOnUse" gradientTransform="matrix(1373.57,831.662,-1255.71,909.719,385.962,4520.09)"><stop offset="0" style="stop-color:rgb(0,129,213);stop-opacity:0.87"/><stop offset="1" style="stop-color:rgb(167,68,130);stop-opacity:0.87"/></radialGradient>
    </defs>
</svg>
