<svg width="100%" height="100%" viewBox="0 0 221 69" xmlns="http://www.w3.org/2000/svg" style="fill-rule:evenodd;clip-rule:evenodd;stroke-linejoin:round;stroke-miterlimit:2;">
    <g transform="matrix(1,0,0,1,-1256,-3880)">
        <g transform="matrix(1,0,0,1,-9849.89,3561.38)">
            <g id="Logo-V4" transform="matrix(0.975649,0,0,0.975649,652.453,-392.375)">
                <g>
                    <g transform="matrix(0.999681,0.0252391,-0.0252391,0.999681,9931.94,-3589.82)">
                        <path d="M1102.83,4306.52C1102.83,4303.49 1100.38,4301.04 1097.35,4301.04L985.44,4301.04C982.412,4301.04 979.954,4303.49 979.954,4306.52L979.954,4356.5C979.954,4359.53 982.412,4361.98 985.44,4361.98L1097.35,4361.98C1100.38,4361.98 1102.83,4359.53 1102.83,4356.5L1102.83,4306.52Z" style="fill:rgb(226,233,251);"/>
                    </g>
                    <g transform="matrix(0.999846,-0.0175331,0.0175331,0.999846,9754.69,-3551.97)">
                        <path d="M1102.83,4306.52C1102.83,4303.49 1100.38,4301.04 1097.35,4301.04L985.44,4301.04C982.412,4301.04 979.954,4303.49 979.954,4306.52L979.954,4356.5C979.954,4359.53 982.412,4361.98 985.44,4361.98L1097.35,4361.98C1100.38,4361.98 1102.83,4359.53 1102.83,4356.5L1102.83,4306.52Z" style="fill:rgb(192,209,249);"/>
                    </g>
                    <g transform="matrix(1,0,0,1,9837.46,-3568.91)">
                        <path d="M1102.83,4306.52C1102.83,4303.49 1100.38,4301.04 1097.35,4301.04L985.44,4301.04C982.412,4301.04 979.954,4303.49 979.954,4306.52L979.954,4356.5C979.954,4359.53 982.412,4361.98 985.44,4361.98L1097.35,4361.98C1100.38,4361.98 1102.83,4359.53 1102.83,4356.5L1102.83,4306.52Z" style="fill:rgb(38,103,255);"/>
                    </g>
                    <g transform="matrix(1.83959,0,0,1.83959,-9182.97,-617.936)">
                        <g transform="matrix(1,0,0,1,9736.21,-3580.93)">
                            <circle cx="1198.89" cy="4318.84" r="0.778" style="fill:rgb(227,234,252);"/>
                        </g>
                        <g transform="matrix(1,0,0,1,9736.21,-3578.87)">
                            <circle cx="1198.89" cy="4318.84" r="0.778" style="fill:rgb(227,234,252);"/>
                        </g>
                        <g transform="matrix(1,0,0,1,9736.21,-3576.83)">
                            <circle cx="1198.89" cy="4318.84" r="0.778" style="fill:rgb(227,234,252);"/>
                        </g>
                    </g>
                </g>
                <g transform="matrix(0.299715,0,0,0.375405,7491.84,478.025)">
                    <g transform="matrix(0.953188,0,0,1.5,9932.33,-5722.55)">
                        <path d="M908.192,4314.14C908.192,4313.42 907.035,4312.83 905.609,4312.83L877.68,4312.83C876.254,4312.83 875.097,4313.42 875.097,4314.14C875.097,4314.87 876.254,4315.45 877.68,4315.45L905.609,4315.45C907.035,4315.45 908.192,4314.87 908.192,4314.14Z" style="fill:rgb(38,103,255);"/>
                    </g>
                    <g transform="matrix(0.953188,0,0,1.5,9932.33,-5694.69)">
                        <path d="M908.192,4314.14C908.192,4313.42 907.035,4312.83 905.609,4312.83L877.68,4312.83C876.254,4312.83 875.097,4313.42 875.097,4314.14C875.097,4314.87 876.254,4315.45 877.68,4315.45L905.609,4315.45C907.035,4315.45 908.192,4314.87 908.192,4314.14Z" style="fill:rgb(38,103,255);"/>
                    </g>
                    <g transform="matrix(1.36096,0,0,1.5,9562,-5708.62)">
                        <path d="M908.192,4314.14C908.192,4313.42 907.381,4312.83 906.383,4312.83L876.906,4312.83C875.907,4312.83 875.097,4313.42 875.097,4314.14C875.097,4314.87 875.907,4315.45 876.906,4315.45L906.383,4315.45C907.381,4315.45 908.192,4314.87 908.192,4314.14Z" style="fill:rgb(38,103,255);"/>
                    </g>
                </g>
                <g transform="matrix(1.24316,0,0,1.5571,-2640.67,-422.618)">
                    <g opacity="0.05">
                        <g transform="matrix(0.953188,0,0,1.5,9932.33,-5722.55)">
                            <path d="M908.192,4314.14C908.192,4313.42 907.035,4312.83 905.609,4312.83L877.68,4312.83C876.254,4312.83 875.097,4313.42 875.097,4314.14C875.097,4314.87 876.254,4315.45 877.68,4315.45L905.609,4315.45C907.035,4315.45 908.192,4314.87 908.192,4314.14Z" style="fill:rgb(38,103,255);"/>
                        </g>
                        <g transform="matrix(0.953188,0,0,1.5,9932.33,-5694.69)">
                            <path d="M908.192,4314.14C908.192,4313.42 907.035,4312.83 905.609,4312.83L877.68,4312.83C876.254,4312.83 875.097,4313.42 875.097,4314.14C875.097,4314.87 876.254,4315.45 877.68,4315.45L905.609,4315.45C907.035,4315.45 908.192,4314.87 908.192,4314.14Z" style="fill:rgb(38,103,255);"/>
                        </g>
                        <g transform="matrix(1.36096,0,0,1.5,9562,-5708.62)">
                            <path d="M908.192,4314.14C908.192,4313.42 907.381,4312.83 906.383,4312.83L876.906,4312.83C875.907,4312.83 875.097,4313.42 875.097,4314.14C875.097,4314.87 875.907,4315.45 876.906,4315.45L906.383,4315.45C907.381,4315.45 908.192,4314.87 908.192,4314.14Z" style="fill:rgb(38,103,255);"/>
                        </g>
                    </g>
                </g>
                <g transform="matrix(1,0,0,1,9900.57,-3589.54)">
                    <text x="834.827px" y="4364.46px" style="font-family:'Poppins-Bold', 'Poppins';font-weight:700;font-size:30px;fill:rgb(19,31,59);">DEV</text>
                </g>
                <g transform="matrix(5.19519,0,0,2.99965,4822.68,-12218.4)">
                    <path d="M1163.18,4319.33C1162.99,4319.33 1162.9,4319.56 1162.9,4319.71C1162.89,4325.1 1162.9,4334.9 1162.9,4335.47C1162.9,4335.7 1163.03,4335.83 1163.16,4335.83C1163.3,4335.83 1163.53,4335.64 1163.77,4335.4L1170.79,4328.38C1171.27,4327.9 1171.27,4327.11 1170.79,4326.63L1163.77,4319.61C1163.52,4319.36 1163.36,4319.32 1163.18,4319.33Z" style="fill:rgb(1,41,134);fill-opacity:0.18;"/>
                </g>
                <g transform="matrix(1.02496,0,0,1.02496,9705.26,-3689.26)">
                    <text x="1092.36px" y="4350.74px" style="font-family:'Poppins-Bold', 'Poppins';font-weight:700;font-size:18px;fill:white;">FlashCards</text>
                </g>
            </g>
        </g>
    </g>
</svg>
