<svg width="100%" height="100%" viewBox="0 0 323 205" xmlns="http://www.w3.org/2000/svg" style="fill-rule:evenodd;clip-rule:evenodd;stroke-miterlimit:2.61313;">
    <g transform="matrix(1,0,0,1,-459,-528)">
        <g transform="matrix(4.16667,0,0,4.16667,0,0)">
            <g transform="matrix(2.64587,0,0,2.65315,0,-206.529)">
                <path d="M45.198,125.878L67.363,125.878C68.157,125.878 68.807,126.526 68.807,127.318L68.807,140.488C68.807,141.28 68.157,141.928 67.363,141.928L45.198,141.928C44.404,141.928 43.754,141.28 43.754,140.488L43.754,127.318C43.754,126.526 44.404,125.878 45.198,125.878Z" style="fill:#f67f7f;stroke:#231f20;stroke-width:0.52px;"/>
            </g>
            <g transform="matrix(2.06205,0,0,2.07425,0,-206.53)">
                <path d="M58.805,163.249L85.624,163.249C85.959,163.249 86.233,163.521 86.233,163.854L86.233,178.694C86.233,179.027 85.959,179.299 85.624,179.299L58.805,179.299C58.471,179.299 58.197,179.027 58.197,178.694L58.197,163.854C58.197,163.521 58.471,163.249 58.805,163.249Z" style="fill:#b5e5ff;stroke:#231f20;stroke-width:0.67px;"/>
            </g>
            <g transform="matrix(0,-6.45091,-6.42034,0,297.818,504)">
                <path d="M51.771,17.288L51.731,17.287C51.324,17.287 50.991,17.617 50.991,18.02L50.991,28.366C50.991,28.77 51.324,29.1 51.731,29.1L51.771,29.099L51.771,17.288Z" style="fill:#93c8f9;stroke:#231f20;stroke-width:0.22px;"/>
            </g>
            <g transform="matrix(1.88782,0,0,-1.89293,522.104,279.11)">
                <path d="M-198.951,78.88L-196.419,78.88" style="fill:none;fill-rule:nonzero;stroke:#231f20;stroke-width:0.74px;stroke-linecap:round;stroke-linejoin:round;"/>
            </g>
            <g transform="matrix(-1.8992,2.03523,2.03523,1.8992,-58.8543,-204.428)">
                <path d="M43.961,131.839L45.5,131.839" style="fill:none;fill-rule:nonzero;stroke:#87b2c6;stroke-width:0.5px;stroke-linecap:round;stroke-linejoin:round;"/>
            </g>
            <g transform="matrix(-1.84623,2.08341,2.08341,1.84623,-60.972,-197.454)">
                <path d="M43.764,130.92L47.722,130.92" style="fill:none;fill-rule:nonzero;stroke:#87b2c6;stroke-width:0.5px;stroke-linecap:round;stroke-linejoin:round;"/>
            </g>
            <g transform="matrix(1.8993,-2.03514,-2.03514,-1.8993,40.3455,-200.093)">
                <path d="M-62.975,-123.317L-61.437,-123.317" style="fill:none;fill-rule:nonzero;stroke:#87b2c6;stroke-width:0.5px;stroke-linecap:round;stroke-linejoin:round;"/>
            </g>
            <g transform="matrix(1.84607,-2.08355,-2.08355,-1.84607,24.462,-198.684)">
                <path d="M-63.173,-124.235L-59.214,-124.235" style="fill:none;fill-rule:nonzero;stroke:#87b2c6;stroke-width:0.5px;stroke-linecap:round;stroke-linejoin:round;"/>
            </g>
            <g transform="matrix(-0.467176,-2.74059,-2.74425,0.466554,239.785,-181.781)">
                <path d="M-119.757,50.592C-120.226,50.677 -120.557,51.035 -120.497,51.393L-119.757,55.737C-119.696,56.095 -119.264,56.323 -118.794,56.248L-119.757,50.592Z" style="fill:#9ac6ea;stroke:#231f20;stroke-width:0.5px;"/>
            </g>
            <g transform="matrix(2.78373,0,0,2.78373,0,-204.005)">
                <path d="M49.566,127.304L50.468,127.304C50.235,127.035 49.799,127.033 49.566,127.304Z" style="fill:none;fill-rule:nonzero;stroke:#f16872;stroke-width:0.5px;stroke-linecap:round;stroke-linejoin:round;"/>
            </g>
            <g transform="matrix(2.78373,0,0,2.78373,0,-204.005)">
                <path d="M56.635,127.304L57.537,127.304C57.304,127.035 56.868,127.033 56.635,127.304Z" style="fill:none;fill-rule:nonzero;stroke:#f16872;stroke-width:0.5px;stroke-linecap:round;stroke-linejoin:round;"/>
            </g>
            <g transform="matrix(-1,0,0,1,317.823,-210.417)">
                <path d="M158.911,355.633C158.041,355.633 157.336,356.339 157.336,357.208C157.336,358.078 158.041,358.783 158.911,358.783C159.781,358.783 160.487,358.078 160.487,357.208C160.487,356.339 159.781,355.633 158.911,355.633" style="fill:#231f20;"/>
            </g>
            <g transform="matrix(3.37443,0,0,-3.36849,497.217,285.637)">
                <path d="M-106.649,41.093C-106.359,41.43 -105.814,41.429 -105.524,41.093" style="fill:none;fill-rule:nonzero;stroke:#231f20;stroke-width:0.41px;stroke-linecap:round;stroke-linejoin:round;"/>
            </g>
            <g transform="matrix(2.78373,0,0,2.78373,0,-201.113)">
                <path d="M51.595,126.063L55.508,126.063C54.499,127.229 52.605,127.235 51.595,126.063Z" style="fill:#231f20;stroke:#231f20;stroke-width:0.5px;stroke-linecap:round;stroke-linejoin:round;"/>
            </g>
        </g>
    </g>
</svg>
